# xmcd
#
# Track frame offsets:
#	150
#	13657
#	27221
#	42004
#	56148
#	70793
#	84451
#	97616
#	110072
#	121411
#	133264
#	144758
#	156569
#	169693
#	182626
#	197357
#	208171
#	221992
#	236233
#	250627
#	262958
#
# Disc length: 3679 seconds
#
# Revision: 0
# Processed by: cddbd v1.5.2PL0 Copyright (c) Steve Scherf et al.
# Submitted via: audiograbber 1.83.01
#
DISCID=290e5d15
DTITLE=Best of Blues - CD 2
DYEAR=1900
DGENRE=
TTITLE0=YoYo Blues - Barbecue Bob
TTITLE1=California Blues - Barbecue Bob
TTITLE2=Motherless Chiles Blues - Barbecue Bob
TTITLE3=She's Coming Back Some Cold Rainy Day - Barbecue Bob
TTITLE4=Barbecue Blues - Barbecue Bob
TTITLE5=Ease It Me Blues - Barbecue Bob
TTITLE6=Chocolate To The Bone - Barbecue Bob
TTITLE7=It's My Life,Baby - Bobby Blue Bland
TTITLE8=Honey Bee - Bobby Blue Bland
TTITLE9=Lost Love Blues - Bobby Blue Bland
TTITLE10=You've Got Bad Intentions - Bobby Blue Bland
TTITLE11=You Did Me Wrong - Bobby Blue Bland
TTITLE12=Last Night - Bobby Blue Bland
TTITLE13=Wise Man's Blues - Bobby Blue Bland
TTITLE14=Driftin' Blues - Charles Brown
TTITLE15=Trouble Blues - Charles Brown
TTITLE16=Get Yourself Another Fool - Charles Brown
TTITLE17=Black Night - Charles Brown
TTITLE18=Hard Times - Charles Brown
TTITLE19=Cryin'  Mercy - Charles Brown
TTITLE20=Merry Christmas,Baby - Charles Brown
EXTD=
EXTT0=
EXTT1=
EXTT2=
EXTT3=
EXTT4=
EXTT5=
EXTT6=
EXTT7=
EXTT8=
EXTT9=
EXTT10=
EXTT11=
EXTT12=
EXTT13=
EXTT14=
EXTT15=
EXTT16=
EXTT17=
EXTT18=
EXTT19=
EXTT20=
PLAYORDER=
